<svg width="46" height="46" viewBox="0 0 46 46" fill="none" xmlns="http://www.w3.org/2000/svg">
<path fill-rule="evenodd" clip-rule="evenodd" d="M7.66667 5.75C7.15833 5.75 6.67082 5.95193 6.31138 6.31138C5.95193 6.67082 5.75 7.15833 5.75 7.66667V23C5.75 23.5083 5.95193 23.9958 6.31138 24.3553C6.67082 24.7147 7.15833 24.9167 7.66667 24.9167H9.58333V28.75C9.58341 29.129 9.69587 29.4995 9.90648 29.8146C10.1171 30.1297 10.4164 30.3753 10.7666 30.5204C11.1168 30.6654 11.5021 30.7034 11.8738 30.6294C12.2456 30.5555 12.587 30.3731 12.8551 30.1051L18.0435 24.9167H28.75C29.2583 24.9167 29.7458 24.7147 30.1053 24.3553C30.4647 23.9958 30.6667 23.5083 30.6667 23V7.66667C30.6667 7.15833 30.4647 6.67082 30.1053 6.31138C29.7458 5.95193 29.2583 5.75 28.75 5.75H7.66667Z" fill="#E66249"/>
<path fill-rule="evenodd" clip-rule="evenodd" d="M15.3774 32.9954C15.4413 32.9366 15.5039 32.8766 15.5653 32.8153L19.6324 28.75H28.75C30.275 28.75 31.7376 28.1442 32.8159 27.0659C33.8942 25.9875 34.5 24.525 34.5 23V15.3333H38.3334C38.8417 15.3333 39.3292 15.5353 39.6886 15.8947C40.0481 16.2542 40.25 16.7417 40.25 17.25V32.5833C40.25 33.0917 40.0481 33.5792 39.6886 33.9386C39.3292 34.2981 38.8417 34.5 38.3334 34.5H36.4167V38.3333C36.4166 38.7124 36.3042 39.0829 36.0935 39.398C35.8829 39.7131 35.5836 39.9587 35.2334 40.1037C34.8833 40.2488 34.498 40.2867 34.1262 40.2128C33.7545 40.1389 33.413 39.9564 33.1449 39.6884L27.9565 34.5H17.25C16.8132 34.5002 16.3893 34.3511 16.0488 34.0775C15.7082 33.8038 15.4714 33.4221 15.3774 32.9954Z" fill="#E66249"/>
</svg>
