<svg width="46" height="46" viewBox="0 0 46 46" fill="none" xmlns="http://www.w3.org/2000/svg">
<path fill-rule="evenodd" clip-rule="evenodd" d="M22.9999 7.66668C20.3181 7.66619 17.683 8.36911 15.3576 9.7053C13.0323 11.0415 11.0981 12.9642 9.74814 15.2815C8.39813 17.5988 7.67953 20.2297 7.66405 22.9115C7.64857 25.5934 8.33677 28.2324 9.65994 30.5651C10.5543 29.4028 11.7039 28.4617 13.02 27.8146C14.3361 27.1676 15.7834 26.8318 17.2499 26.8333H28.7499C30.2165 26.8318 31.6638 27.1676 32.9799 27.8146C34.2959 28.4617 35.4456 29.4028 36.3399 30.5651C37.6631 28.2324 38.3513 25.5934 38.3358 22.9115C38.3203 20.2297 37.6017 17.5988 36.2517 15.2815C34.9017 12.9642 32.9675 11.0415 30.6422 9.7053C28.3169 8.36911 25.6818 7.66619 22.9999 7.66668ZM38.224 34.6457C38.4642 34.3326 38.6942 34.0119 38.914 33.6835C41.0389 30.5262 42.1716 26.8058 42.1666 23C42.1666 12.4143 33.5857 3.83334 22.9999 3.83334C12.4142 3.83334 3.83327 12.4143 3.83327 23C3.82723 27.2105 5.21335 31.3048 7.77585 34.6457L7.76627 34.6802L8.44669 35.4718C10.2443 37.5734 12.4763 39.2603 14.9887 40.4161C17.5012 41.5719 20.2344 42.1691 22.9999 42.1667C23.4139 42.1667 23.8254 42.1539 24.2343 42.1283C27.6927 41.9103 31.0263 40.754 33.877 38.7838C35.2404 37.8432 36.476 36.73 37.5532 35.4718L38.2336 34.6802L38.224 34.6457ZM22.9999 11.5C21.4749 11.5 20.0124 12.1058 18.9341 13.1841C17.8557 14.2625 17.2499 15.725 17.2499 17.25C17.2499 18.775 17.8557 20.2375 18.9341 21.3159C20.0124 22.3942 21.4749 23 22.9999 23C24.5249 23 25.9875 22.3942 27.0658 21.3159C28.1441 20.2375 28.7499 18.775 28.7499 17.25C28.7499 15.725 28.1441 14.2625 27.0658 13.1841C25.9875 12.1058 24.5249 11.5 22.9999 11.5Z" fill="#E66249"/>
</svg>
